<svg id="Camada_1" data-name="Camada 1" xmlns="http://www.w3.org/2000/svg" xmlns:xlink="http://www.w3.org/1999/xlink" viewBox="0 0 690.17 214.35"><defs><style>.cls-1{fill:url(#Gradiente_sem_nome_9);}.cls-2{fill:url(#Gradiente_sem_nome_9-2);}.cls-3{fill:url(#Gradiente_sem_nome_9-3);}.cls-4{fill:#419b59;}.cls-5{fill:#0b5b52;}.cls-6{fill:#211915;}</style><linearGradient id="Gradiente_sem_nome_9" y1="107.18" x2="214.35" y2="107.18" gradientUnits="userSpaceOnUse"><stop offset="0" stop-color="#0b5b52"/><stop offset="1" stop-color="#419b59"/></linearGradient><linearGradient id="Gradiente_sem_nome_9-2" x1="81.68" y1="155.77" x2="95.67" y2="155.77" xlink:href="#Gradiente_sem_nome_9"/><linearGradient id="Gradiente_sem_nome_9-3" x1="118.68" y1="58.77" x2="132.48" y2="58.77" xlink:href="#Gradiente_sem_nome_9"/></defs><title>logo</title><path class="cls-1" d="M200.34,73.34,141,14a47.85,47.85,0,0,0-67.66,0L14,73.34A47.84,47.84,0,0,0,14,141l59.33,59.33a47.85,47.85,0,0,0,67.66,0L200.34,141A47.85,47.85,0,0,0,200.34,73.34Zm-47.71,33.33-70.76,83,13.8-67.84-27.93,0h-.17a8.23,8.23,0,0,1-6.49-13.32l0,0,71.42-83.77-13.8,67.84,28.18,0a8.24,8.24,0,0,1,5.75,14.15Z"/><path class="cls-2" d="M95.67,121.73h-9.1l-4.89,68.1.26-.61Z"/><path class="cls-3" d="M127.63,92.51,132.48,25l-.12.27L118.68,92.52Z"/><path class="cls-4" d="M240.57,164.08V26.72H341.51v24h-73V80.09h67.23v24.2H268.49v35.37h76.33v24.41Z"/><path class="cls-5" d="M472.5,110.19a33.79,33.79,0,0,0-4.45-9.52,25.22,25.22,0,0,0-6.62-6.62,40.16,40.16,0,0,0-8.17-4.24,26.19,26.19,0,0,0,12-9.83A27.29,27.29,0,0,0,470,64.17q0-17.38-10.55-27.41t-30.82-10H361V164.08h61.85q26.07,0,38.68-11.07t12.62-29.89A45,45,0,0,0,472.5,110.19ZM388.72,50.51h34.55q10.13,0,14.58,3.52t4.45,11.38q0,14.89-17.38,14.89h-36.2Zm51.92,84.61q-5.59,5.58-15.51,5.58H388.72v-37h36.82q9.72,0,15.2,4.14t5.48,13.24A19.07,19.07,0,0,1,440.65,135.12Z"/><path class="cls-5" d="M521.23,26.72l-49,137.36h30.41l9.72-28.34H563l8.69,28.34h31.24L554.54,26.72Zm-1.45,85.43,17.58-54.61h.21l17.17,54.61Z"/><polygon class="cls-5" points="578.47 26.72 578.47 50.72 619.84 50.72 619.84 164.08 648.59 164.08 648.59 50.72 690.17 50.72 690.17 26.72 578.47 26.72"/><path class="cls-6" d="M247,186a5.6,5.6,0,0,0-3.06.76,2.54,2.54,0,0,0-1.19,2.3,2.67,2.67,0,0,0,1.19,2.35,18,18,0,0,0,5.08,1.75,14,14,0,0,1,5.86,2.64,6.25,6.25,0,0,1,2,5,6.63,6.63,0,0,1-2.49,5.37,9.94,9.94,0,0,1-6.54,2.06,15.37,15.37,0,0,1-10.52-4.08l2.68-3.22a12,12,0,0,0,8,3.33,5.43,5.43,0,0,0,3.27-.89A2.77,2.77,0,0,0,252.4,201a2.64,2.64,0,0,0-1.14-2.28,12,12,0,0,0-3.92-1.48,35.07,35.07,0,0,1-4.23-1.23,9.54,9.54,0,0,1-2.57-1.46,6.11,6.11,0,0,1-2.24-5.21,6.34,6.34,0,0,1,2.55-5.4,10.26,10.26,0,0,1,6.31-1.9,15.12,15.12,0,0,1,4.81.8,12.57,12.57,0,0,1,4.12,2.24l-2.28,3.22a8.61,8.61,0,0,0-3-1.66A11.71,11.71,0,0,0,247,186Z"/><path class="cls-6" d="M283.28,204.45a13.86,13.86,0,0,1-18.94,0,13.27,13.27,0,0,1,0-18.66,13.86,13.86,0,0,1,18.94,0,13.27,13.27,0,0,1,0,18.66Zm-3.13-15.82a8.86,8.86,0,0,0-12.69,0,9.44,9.44,0,0,0,0,13,8.86,8.86,0,0,0,12.69,0,9.44,9.44,0,0,0,0-13Z"/><path class="cls-6" d="M304,204.07a8.93,8.93,0,0,0,3.8-.74,13.06,13.06,0,0,0,3.33-2.37l2.75,2.82a12.65,12.65,0,0,1-9.74,4.45,13.06,13.06,0,0,1-9.51-3.69,13.4,13.4,0,0,1,.07-18.73,13.35,13.35,0,0,1,9.73-3.76,12.72,12.72,0,0,1,9.82,4.34l-2.71,3a11.87,11.87,0,0,0-3.42-2.42,9.59,9.59,0,0,0-3.78-.69,9,9,0,0,0-6.44,2.48,8.35,8.35,0,0,0-2.6,6.33,8.73,8.73,0,0,0,2.58,6.44A8.37,8.37,0,0,0,304,204.07Z"/><path class="cls-6" d="M339.71,204.45a13.86,13.86,0,0,1-18.94,0,13.27,13.27,0,0,1,0-18.66,13.86,13.86,0,0,1,18.94,0,13.27,13.27,0,0,1,0,18.66Zm-3.13-15.82a8.86,8.86,0,0,0-12.69,0,9.44,9.44,0,0,0,0,13,8.86,8.86,0,0,0,12.69,0,9.44,9.44,0,0,0,0-13Z"/><path class="cls-6" d="M369.11,190.87q0,6.25-5.46,7.88l6.62,9.18h-5.42l-6-8.5h-5.6v8.5h-4.27V182.67h9.4q5.78,0,8.28,2T369.11,190.87Zm-5.68,3.58a4.5,4.5,0,0,0,1.3-3.6q0-2.48-1.34-3.4t-4.77-.92H353.2v9h5.31Q362.13,195.57,363.43,194.45Z"/><path class="cls-6" d="M395.42,190.87q0,6.25-5.46,7.88l6.62,9.18h-5.42l-6-8.5h-5.6v8.5h-4.27V182.67h9.4q5.78,0,8.28,2T395.42,190.87Zm-5.68,3.58a4.5,4.5,0,0,0,1.3-3.6q0-2.48-1.34-3.4t-4.77-.92h-5.42v9h5.31Q388.45,195.57,389.75,194.45Z"/><path class="cls-6" d="M422.72,204.45a13.86,13.86,0,0,1-18.94,0,13.27,13.27,0,0,1,0-18.66,13.86,13.86,0,0,1,18.94,0,13.27,13.27,0,0,1,0,18.66Zm-3.13-15.82a8.86,8.86,0,0,0-12.69,0,9.44,9.44,0,0,0,0,13,8.86,8.86,0,0,0,12.69,0,9.44,9.44,0,0,0,0-13Z"/><path class="cls-6" d="M459.59,182.67v4H446.11v6.69h12.11v3.8H446.11v6.76H460v4H441.84V182.67Z"/><path class="cls-6" d="M469.75,207.94h-4.27V182.67h6.65l7.63,15.87,7.63-15.87H494v25.27h-4.27V188.2l-8.82,17.53h-2.39l-8.79-17.53Z"/><path class="cls-6" d="M522,207.94H510.93V182.67h9.83a14.21,14.21,0,0,1,4.43.61,6.08,6.08,0,0,1,2.77,1.66,6.46,6.46,0,0,1,1.74,4.41,5.22,5.22,0,0,1-1.88,4.41,8.2,8.2,0,0,1-.94.63l-.9.42a6.62,6.62,0,0,1,3.74,2.11,5.89,5.89,0,0,1,1.39,4,6.8,6.8,0,0,1-1.81,4.66Q527.16,207.94,522,207.94Zm-6.8-14.79h5.42q4.63,0,4.63-3.15a3,3,0,0,0-1.12-2.6,6.06,6.06,0,0,0-3.47-.79H515.2Zm0,10.85h6.69a7.12,7.12,0,0,0,3.6-.74,3,3,0,0,0,1.25-2.8q0-3.36-5.39-3.36H515.2Z"/><path class="cls-6" d="M539.74,202.19l-2.53,5.75h-4.56l11.14-25.27h4.56l11.13,25.27h-4.56l-2.53-5.75Zm10.92-3.94-4.59-10.41-4.59,10.41Z"/><path class="cls-6" d="M570.55,186.57v21.37h-4.27V186.57h-7.66v-3.9h19.59v3.9Z"/><path class="cls-6" d="M600.59,182.67v4H587.1v6.69h12.11v3.8H587.1v6.76H601v4H582.84V182.67Z"/><path class="cls-6" d="M626.65,190.87q0,6.25-5.46,7.88l6.62,9.18h-5.42l-6-8.5h-5.6v8.5h-4.27V182.67h9.4q5.78,0,8.28,2T626.65,190.87ZM621,194.45a4.5,4.5,0,0,0,1.3-3.6q0-2.48-1.34-3.4t-4.77-.92h-5.42v9h5.31Q619.68,195.57,621,194.45Z"/><path class="cls-6" d="M632.8,182.67h4.27v25.27H632.8Z"/><path class="cls-6" d="M647.66,202.19l-2.53,5.75h-4.56l11.14-25.27h4.56l11.13,25.27h-4.56l-2.53-5.75Zm10.92-3.94L654,187.84l-4.59,10.41Z"/><path class="cls-6" d="M678.55,186a5.6,5.6,0,0,0-3.06.76,2.54,2.54,0,0,0-1.19,2.3,2.67,2.67,0,0,0,1.19,2.35,18,18,0,0,0,5.08,1.75,14,14,0,0,1,5.86,2.64,6.25,6.25,0,0,1,2,5,6.63,6.63,0,0,1-2.49,5.37,9.94,9.94,0,0,1-6.54,2.06,15.37,15.37,0,0,1-10.52-4.08l2.68-3.22a12,12,0,0,0,8,3.33,5.43,5.43,0,0,0,3.27-.89A2.77,2.77,0,0,0,684,201a2.64,2.64,0,0,0-1.14-2.28,12,12,0,0,0-3.92-1.48,35.07,35.07,0,0,1-4.23-1.23,9.54,9.54,0,0,1-2.57-1.46,6.11,6.11,0,0,1-2.24-5.21,6.34,6.34,0,0,1,2.55-5.4,10.26,10.26,0,0,1,6.31-1.9,15.12,15.12,0,0,1,4.81.8,12.57,12.57,0,0,1,4.12,2.24l-2.28,3.22a8.61,8.61,0,0,0-3-1.66A11.71,11.71,0,0,0,678.55,186Z"/></svg>