<?xml version="1.0" encoding="utf-8"?>
<!-- Generator: Adobe Illustrator 21.0.2, SVG Export Plug-In . SVG Version: 6.00 Build 0)  -->
<svg version="1.1" id="Camada_1" xmlns="http://www.w3.org/2000/svg" xmlns:xlink="http://www.w3.org/1999/xlink" x="0px" y="0px"
	 viewBox="0 0 20 20" style="enable-background:new 0 0 20 20;" xml:space="preserve">
<style type="text/css">
	.st0{fill:#DCF8C6;}
</style>
<path class="st0" d="M18.6,2.6C18.3,2.8,1.3,8.7,1,8.9C0.7,9,0.6,9.2,1,9.3l3.8,1.5L7,11.8l11-8.1c0.1-0.1,0.3,0.1,0.2,0.2
	c-0.1,0.1-7.9,8.5-7.9,8.5v0l-0.5,0.5l0.6,0.3l5,2.7c0.3,0.2,0.7,0,0.8-0.3c0.1-0.4,2.8-12.3,2.9-12.5C19.2,2.7,19,2.5,18.6,2.6
	L18.6,2.6z M7,17.2c0,0.2,0.1,0.3,0.3,0.1c0.3-0.2,2.9-2.6,2.9-2.6L7,13.1C7,13.1,7,17.2,7,17.2z"/>
</svg>
