<?xml version="1.0" encoding="utf-8"?>
<!-- Generator: Adobe Illustrator 21.0.2, SVG Export Plug-In . SVG Version: 6.00 Build 0)  -->
<svg version="1.1" id="Camada_1" xmlns="http://www.w3.org/2000/svg" xmlns:xlink="http://www.w3.org/1999/xlink" x="0px" y="0px"
	 viewBox="0 0 512 426.7" style="enable-background:new 0 0 512 426.7;" xml:space="preserve">
<style type="text/css">
	.st0{fill:#DCF8C6;}
</style>
<path class="st0" d="M478.9,196.6c0-4.5-1-8.9-3.3-13.1l-0.1-0.1l0-0.1c-3-6.2-7.7-10.9-13.4-14.1c-5.7-3.2-12.3-4.8-19-4.8
	c-6,0-12,1.4-17.3,4c16.9,14.7,31.8,32.4,41.4,53.1c3.1-2.7,5.7-6,7.7-9.6C477.5,207.2,478.9,201.8,478.9,196.6L478.9,196.6z
	 M445.3,270c0-18.5-6.7-37-17.4-51.9c-21.5-29.9-54.8-49.4-89.5-60.2l-0.2-0.1c-6.6-2.1-13.4-3.8-20.2-5.4
	c-20.3-4.6-41-6.9-61.8-6.9c-27.9,0-55.7,4.1-82.4,12.3c-34.7,11-68.1,30.4-89.6,60.4v0.1c-10.9,15-17.2,33.6-17.2,52.1
	c0,6.8,0.9,13.6,2.7,20.3h0c3.9,14.8,11.5,28.2,21.4,39.8c9.9,11.5,22,21.5,34.7,29.5c2.8,1.8,5.7,3.4,8.6,5.1
	c37,20.6,79.6,29.7,121.9,29.7c7.1,0,14.4-0.2,21.5-0.7c42.6-3.5,85.4-16.1,120-41.8h0c11-8.1,21.2-18,29.3-29.2
	c8.1-11.2,14-23.7,16.7-37.3v-0.1h0C444.8,280.3,445.3,275.2,445.3,270L445.3,270z M86.1,168.7c-5.5-2.6-11.2-4.4-16.8-4.4
	c-0.9,0-1.9,0.1-2.8,0.2h-0.3c-8.1,0.2-16.2,3.8-22.4,9.4c-6.1,5.6-10.2,13.2-10.5,21.6v0.1l0,0.1c-0.1,0.7-0.1,1.4-0.1,2
	c0,5.2,1.6,10.2,4.3,14.7c2,3.4,4.6,6.5,7.6,9.2C54.4,200.9,69.2,183.4,86.1,168.7L86.1,168.7z M390.4,58.2c0,0.6,0,1.1,0.1,1.7V60
	c0.2,7.2,3.6,13.8,8.8,18.8c5.2,4.9,12,8,19,8h0.2l1.5,0.1c7,0,14-3,19.2-7.9c5.2-4.9,8.7-11.7,9-18.9V60c0.1-0.6,0.1-1.1,0.1-1.7
	c0-7.5-3.5-14.5-8.9-19.8c-5.4-5.2-12.7-8.5-19.9-8.5c-2.3,0-4.6,0.3-6.9,1l-0.1,0.1h-0.1c-5.9,1.5-11.5,5.2-15.5,10.1
	C392.9,46,390.4,52,390.4,58.2L390.4,58.2z M511.9,193.1L511.9,193.1c0.1,1.2,0.1,2.3,0.1,3.4c0,12.4-4,24.4-10.6,34.5
	c-6.2,9.5-14.8,17.5-24.6,22.8c0.6,4.9,1,9.9,1,14.9c0,26.8-9.2,53.1-25.3,74.2h0c-29.7,39.5-75.4,62.9-121.5,74.6h0l0,0.1
	c-24.6,6-49.9,9-75.2,9c-37.8,0-75.5-6.8-110.7-20.9h0c-36.5-15.1-71.3-39-92.6-74C40.7,313,34.4,291,34.4,269c0-5,0.3-10,1-14.9
	c-9.6-5.5-17.9-13.1-24.1-22.2C4.7,222,0.5,210.5,0,198.3v-0.2C0,181,7.4,164.9,18.9,153c11.5-11.9,27.3-19.7,44.1-19.7h0.7
	c1.8-0.1,3.6-0.2,5.3-0.2c8.5,0,17,1.4,25,4.5h0.1c6.9,2.9,13.7,6.4,19.8,11.3c2-1,4.1-2.2,6.6-3.1c37-21.9,80-30.3,121.8-32.8
	c0.4-20.8,2.9-42.5,13-61.5c8.4-15.8,23-28.1,40.5-32.4h0.2c6.6-1.3,13.3-1.9,20-1.9c17.7,0,35.2,4.2,51.6,10.7
	c7.2-10.9,17.6-19.5,29.7-24.2l0.1-0.1l0.1-0.1c7.1-2.2,14.6-3.5,22.2-3.5c8,0,16,1.5,23.5,4.8V4.8l0,0.1l0.1,0.1
	c10.8,4.2,19.9,11.8,26.4,21.3c6.5,9.6,10.3,21.1,10.3,32.9c0,2.2-0.1,4.3-0.4,6.5l0,0.1l0,0.1c-1.3,15.2-9,28.6-19.9,38.1
	c-11,9.6-25.2,15.4-39.9,15.4c-2.3,0-4.7-0.2-7.1-0.5c-14.5-1.1-28-8.1-38-18.6c-10-10.4-16.4-24.3-16.4-39.4c0-0.7,0.1-1.5,0.1-2.2
	c-13.6-6.1-28.1-11.1-42.4-11.1c-2.1,0-4.1,0.1-6.2,0.3h0c-10.8,1-20.8,7.8-25.6,17.5v0.1c-7.4,14.3-8.8,31.1-9,47.7
	c41.2,2.7,82.7,12.6,119.1,33.5h0.1l0.5,0.3c0.7,0.4,2,1.1,3.1,1.7c2.5-2.1,5.1-4.1,8.2-5.9c11-7.3,24.1-11,37.2-11
	c5.8,0,11.6,0.7,17.3,2.2h0l0.2,0.1l0.2,0.1c13.3,3.4,25.4,11,34.4,21.3C504.6,165.9,510.7,178.9,511.9,193.1L511.9,193.1z
	 M166.5,273.5h0.1c3.3,1.2,6.6,1.8,9.9,1.8c8.3,0,16.3-3.3,22.4-8.9c6.1-5.6,10.3-13.4,10.3-22.4l0-0.7l0-1.3
	c0-8.9-4.1-16.8-10.1-22.3c-6.1-5.6-14.1-9.1-22.4-9.1c-2.2,0-4.5,0.3-6.7,0.8h-0.1c-11,2.3-20.7,10.5-24.2,21.7l0,0.1
	c-1,3.1-1.5,6.2-1.5,9.4c0,6.9,2.3,13.6,6.2,19.2c3.9,5.4,9.4,9.7,16,11.7 M345.6,314.9c-2.6-1.7-5.7-2.7-8.9-2.7
	c-2.6,0-5.3,0.7-7.7,2.3c-22.6,13.5-49.2,20.9-75.6,20.9c-19.8,0-39.5-4.1-57.4-12.9l-0.1-0.1l-0.1-0.1c-2.7-1.1-5.8-3.4-9.1-5.6
	c-1.7-1.1-3.5-2.2-5.4-3c-1.9-0.9-4.1-1.4-6.4-1.4c-1.9,0-3.9,0.5-5.9,1.3l-0.3,0.1h0c-3.1,1.2-5.5,3.4-7.1,6
	c-1.6,2.7-2.4,5.7-2.4,8.8c0,2.8,0.7,5.6,2,8.1c1.3,2.4,3.3,4.5,5.9,5.9c25.5,17.2,55.5,25,85.7,25c27.2,0,54.5-6.3,78.9-17.7
	l0.1-0.1l0.1-0.1c3.2-2,7.5-3.6,11.5-6.1c2-1.3,3.9-2.7,5.6-4.7c1.7-1.9,3-4.2,3.8-7c0.3-1.3,0.5-2.5,0.5-3.6c0-2.3-0.6-4.4-1.5-6.4
	C350.4,319,348.2,316.6,345.6,314.9L345.6,314.9z M366.1,232.4c1.3,3.4,1.9,6.9,1.9,10.4c0,6.9-2.4,13.8-6.5,19.3
	c-4,5.5-9.7,9.7-16.3,11.6l-0.1,0.1H345c-3.1,1.1-6.3,1.6-9.5,1.6c-7.5,0-14.8-2.7-20.6-7.3c-5.8-4.6-10.2-11.1-11.6-18.8h0l0-0.1
	l0-0.1h0c-0.4-2-0.7-4-0.7-6c0-6.7,2.3-13.2,6.1-18.5c3.8-5.3,9.1-9.6,15.3-11.7h0.1c3.5-1.3,7.2-2,10.9-2c6.7,0,13.3,2,18.8,5.7
	c5.5,3.6,9.9,9,12.2,15.6l0.1,0.1L366.1,232.4L366.1,232.4L366.1,232.4z"/>
</svg>
