<?xml version="1.0" encoding="utf-8"?>
<!-- Generator: Adobe Illustrator 21.0.2, SVG Export Plug-In . SVG Version: 6.00 Build 0)  -->
<svg version="1.1" id="Camada_1" xmlns="http://www.w3.org/2000/svg" xmlns:xlink="http://www.w3.org/1999/xlink" x="0px" y="0px"
	 viewBox="0 0 87 88" style="enable-background:new 0 0 87 88;" xml:space="preserve">
<style type="text/css">
	.st0{fill:#DCF8C6;}
</style>
<path class="st0" d="M61.6,51.8c-0.9-0.5-5.6-3-6.4-3.4c-0.9-0.3-1.5-0.5-2.2,0.4c-0.7,0.9-2.6,3-3.2,3.6c-0.6,0.6-1.1,0.7-2.1,0.2
	c-0.9-0.5-4-1.6-7.5-5c-2.8-2.6-4.6-5.9-5.1-6.8c-0.5-1,0-1.5,0.5-1.9c0.5-0.4,1-1.1,1.5-1.6c0.5-0.5,0.7-0.9,1-1.6
	c0.3-0.6,0.2-1.2,0-1.7c-0.2-0.5-2-5.3-2.7-7.2c-0.7-1.9-1.5-1.7-2.1-1.7c-0.6,0-1.2-0.1-1.8-0.1c-0.6,0-1.7,0.2-2.6,1.1
	c-0.9,0.9-3.5,3.1-3.6,7.9c-0.2,4.7,3.1,9.4,3.5,10c0.5,0.7,6.2,10.9,15.8,15.1c9.6,4.2,9.6,2.9,11.4,2.8c1.8-0.1,5.8-2.1,6.6-4.3
	c0.9-2.2,1-4.1,0.7-4.5C63.2,52.6,62.6,52.3,61.6,51.8 M44,74.5c-6.3,0-12.3-1.9-17.2-5.2l-12,3.8l3.9-11.6c-3.7-5.2-6-11.5-6-18.3
	c0-17.2,14-31.2,31.2-31.2c17.2,0,31.2,14,31.2,31.2C75.3,60.5,61.3,74.5,44,74.5 M6.5,43.3c0,7.1,2,13.7,5.4,19.4L5.1,82.8
	l20.8-6.7c5.4,3,11.6,4.7,18.1,4.7c20.7,0,37.5-16.8,37.5-37.5C81.6,22.6,64.8,5.8,44,5.8C23.3,5.8,6.5,22.6,6.5,43.3L6.5,43.3z"/>
</svg>
