<?xml version="1.0" encoding="utf-8"?>
<!-- Generator: Adobe Illustrator 21.0.2, SVG Export Plug-In . SVG Version: 6.00 Build 0)  -->
<svg version="1.1" id="Capa_1" xmlns="http://www.w3.org/2000/svg" xmlns:xlink="http://www.w3.org/1999/xlink" x="0px" y="0px"
	 viewBox="0 0 31.3 31.3" style="enable-background:new 0 0 31.3 31.3;" xml:space="preserve">
<style type="text/css">
	.st0{fill:#FFFFFF;}
</style>
<g>
	<g>
		<g>
			<circle class="st0" cx="11.2" cy="14" r="0.9"/>
		</g>
		<g>
			<path class="st0" d="M17.5,21.5c0,0,0.1-0.1,0.1-0.2s0-0.1-0.1-0.1c-0.6-0.2-1-0.6-1.4-1c0-0.1-0.1-0.1,0-0.2
				c0-0.1,0.1-0.1,0.1-0.1c0.2,0,0.4-0.1,0.6-0.1c0,0,0,0,0-0.1c0,0,0,0,0-0.1c-0.5-0.2-1.3-0.5-1.6-1c-0.3-0.4-0.3-0.9-0.3-1.1
				c0.1-0.3,0.4-0.8,0.4-0.8h0.9h0.2c0.9,0,1.6-0.7,1.6-1.6v-1.8c0-0.6-0.3-1.1-0.8-1.4c0-2.5-0.7-4.5-2.2-5.8c-1.4-1.3-3.4-2-6-2
				s-4.6,0.7-6,2c-1.4,1.4-2.2,3.3-2.2,5.8C0.3,12.2,0,12.7,0,13.3v1.8c0,0.9,0.7,1.6,1.6,1.6h1.1c0,0,0.2,0.5,0.4,0.8
				c0,0.3,0,0.7-0.3,1.1C2.5,19,2,19.3,1.6,19.5c-0.1,0-0.1,0.1-0.1,0.2c0,0.1,0.1,0.1,0.1,0.2h0.1c0.1,0,0.1,0.1,0.1,0.1
				c0,0.1,0,0.1,0,0.2c-0.4,0.4-0.8,0.7-1.4,1c-0.1,0-0.1,0.1-0.1,0.1c0,0.1,0,0.1,0.1,0.2c0.3,0.2,0.6,0.4,1,0.6
				c0.1,0,0.1,0.1,0.1,0.2C1.2,23.1,1,24,1,24.7v0.4c0,1.1,0.9,2,2,2h11.9c1.1,0,2-0.9,2-2v-0.3c0-0.6-0.1-1.2-0.2-1.7
				s0.1-1,0.5-1.3C17.3,21.7,17.4,21.6,17.5,21.5z M2.3,11.8H1.6c0.1-4.4,2.6-6.7,7.2-6.7s7.1,2.3,7.2,6.7h-0.5
				c-0.2-1.5-0.7-2.7-1.4-3.6C12.9,6.7,11.2,6,8.9,6s-4,0.8-5.2,2.2C3,9.1,2.5,10.4,2.3,11.8z M14.1,16.6C14,17,13.8,17.5,13.4,18
				c-1.2,1.9-3.2,2.8-4.4,2.8s-3.2-1-4.4-2.8c0.9,0.4,1.9,0.6,2.8,0.6c0.2,0.4,0.8,0.7,1.5,0.7c0.9,0,1.6-0.5,1.6-1.1
				c0-0.6-0.7-1.1-1.6-1.1c-0.6,0-1.2,0.3-1.4,0.7c-1.3-0.1-2.8-0.4-3.7-1.5c-0.2-0.7-0.4-1.5-0.4-2.3c0-0.2,0-0.5,0-0.7
				c1.3-0.2,2.6-1.4,3-2.9c0-0.1,0.1-0.2,0.3-0.2c0.1,0,0.3,0,0.3,0.1c1.2,1.6,2.8,1.7,3.8,1.9c0.1,0,0.3,0,0.4-0.2
				c0.1-0.1,0.1-0.3,0-0.4c-0.1-0.1-0.1-0.1-0.2-0.2c1.7,0.2,3,0.7,3.7,1.3c0,0.4,0.1,0.8,0.1,1.2C14.5,14.9,14.3,15.8,14.1,16.6z"
				/>
		</g>
		<g>
			<circle class="st0" cx="6.5" cy="14" r="0.9"/>
		</g>
		<g>
			<circle class="st0" cx="21.3" cy="14.7" r="0.7"/>
		</g>
		<g>
			<path class="st0" d="M25.7,20.2c0.1,0,0.1-0.1,0.1-0.2s0-0.1-0.1-0.1c-0.5-0.2-0.8-0.5-1-0.8l0,0l0,0c0.2,0,0.3,0,0.5-0.1
				c0,0,0.1,0,0.1-0.1v-0.1c-0.4-0.1-0.8-0.3-1.1-0.7C24,17.8,24,17.5,24,17.3c0.1-0.2,0.3-0.6,0.3-0.6H25h0.1
				c0.6,0,1.1-0.5,1.1-1.2v-1.3c0-0.4-0.2-0.8-0.6-1c0-1.8-0.5-3.2-1.6-4.2c-1-1-2.5-1.5-4.3-1.5c-1.1,0-2,0.2-2.8,0.5
				c0.1,0.2,0.2,0.4,0.2,0.6c0.7-0.3,1.5-0.4,2.5-0.4c3.3,0,5.1,1.7,5.2,4.8h-0.4c-0.2-1.1-0.5-1.9-1-2.6c-0.8-1.1-2.1-1.6-3.7-1.6
				c-0.9,0-1.7,0.2-2.3,0.5c0.2,0.7,0.3,1.4,0.3,2.2c0.1,0,0.1,0.1,0.2,0.2l0,0c0-0.1,0-0.1,0.1-0.1s0.1,0,0.1,0.1
				c0.8,1.3,1.9,1.4,2.7,1.6c0.1,0,0.2,0,0.3-0.1c0.1-0.1,0-0.2-0.1-0.3c1.2,0.1,2.1,0.5,2.7,1c0,0.3,0,0.5,0,0.8
				c0,0.7-0.2,1.3-0.3,1.9c-0.1,0.2-0.2,0.6-0.5,1c-0.9,1.4-2.3,2-3.2,2c-0.9,0-2.3-0.7-3.2-2c0.6,0.3,1.4,0.4,2,0.5
				c0.2,0.3,0.6,0.5,1,0.5c0.6,0,1.1-0.4,1.1-0.8S20.1,17,19.5,17c-0.5,0-0.8,0.2-1,0.5c-0.5,0-1-0.1-1.5-0.3
				c-0.2,0.1-0.4,0.1-0.7,0.1h-0.8l-0.2,0.4l0,0c0,0.2,0,0.5,0.2,0.7c0.3,0.4,1,0.7,1.5,0.8l0.9,0.2c0.1,0,0.1,0.1,0.1,0.2
				s0,0.1-0.1,0.2L17,20.2c-0.1,0-0.1,0.1-0.2,0.1c0.3,0.2,0.6,0.4,1,0.5l0.5,0.2c0.1,0,0.1,0.1,0.1,0.1c0,0.1,0,0.1-0.1,0.2
				c0,0-0.7,0.6-1,0.8C17,22.4,16.9,22.7,17,23c0.1,0.4,0.2,0.9,0.2,1.3h6.6c0.8,0,1.5-0.6,1.5-1.5v-0.3c0-0.5-0.1-0.9-0.2-1.4
				c-0.1-0.3,0-0.6,0.3-0.7C25.5,20.3,25.6,20.3,25.7,20.2z"/>
		</g>
		<g>
			<circle class="st0" cx="28.3" cy="15.3" r="0.4"/>
		</g>
		<g>
			<path class="st0" d="M30.5,16.6L30.5,16.6c0.5,0,0.8-0.3,0.8-0.7v-0.8c0-0.3-0.2-0.5-0.4-0.6c0-1.1-0.3-2-1-2.6
				c-0.6-0.6-1.5-0.9-2.7-0.9c-0.6,0-1.1,0.1-1.6,0.2c0,0.1,0.1,0.3,0.1,0.4c0.4-0.1,0.9-0.2,1.5-0.2c2.1,0,3.2,1,3.2,3h-0.3
				c-0.1-0.7-0.3-1.2-0.6-1.6c-0.5-0.7-1.3-1-2.3-1c-0.5,0-1,0.1-1.4,0.3c0.1,0.3,0.1,0.7,0.1,1.1c0.2,0.2,0.4,0.5,0.5,0.8
				c0.5,0.5,1.1,0.5,1.6,0.7c0.1,0,0.1,0,0.1-0.1v-0.1L28,14.4c0.7,0.1,1.3,0.3,1.7,0.6c0,0.2,0,0.3,0,0.5c0,0.4-0.1,0.8-0.2,1.2
				c0,0.1-0.1,0.4-0.3,0.6c-0.5,0.8-1.4,1.3-2,1.3c-0.5,0-1.3-0.4-1.9-1.2c-0.1,0-0.3,0.1-0.4,0.1h-0.4c0,0.1-0.2,0.3,0,0.6
				c0.1,0.3,0.6,0.4,1,0.5l1.2,0.3c0,0,0.1,0,0.1,0.1s0,0.1,0,0.1l-1.1,0.4c0.1,0.1,0.3,0.2,0.5,0.2l0.7,0.2c0,0,0,0,0,0.1v0.1
				c0,0-0.7,0.5-0.9,0.8c-0.2,0.2-0.3,0.3-0.2,0.5H30c0.5,0,0.9-0.4,0.9-0.9v-0.2c0-0.4-0.1-0.8-0.2-1.2c0.2-0.1,0.3-0.2,0.5-0.3
				c0,0,0,0,0-0.1c0,0,0,0,0-0.1c-0.3-0.1-0.6-0.3-0.7-0.6c0.1,0,0.3,0,0.4,0l0,0l0,0c-0.2-0.1-0.5-0.2-0.7-0.4
				c-0.1-0.2-0.1-0.4-0.1-0.5c0.1-0.1,0.2-0.4,0.2-0.4L30.5,16.6L30.5,16.6z"/>
		</g>
		<g>
			<path class="st0" d="M25.5,17.2c0.3,0.1,0.7,0.2,1,0.2c0.1,0.2,0.4,0.3,0.6,0.3c0.4,0,0.7-0.2,0.7-0.5c0-0.3-0.3-0.5-0.7-0.5
				c-0.3,0-0.5,0.1-0.6,0.3c-0.2,0-0.4,0-0.6-0.1C25.9,17,25.7,17.1,25.5,17.2z"/>
		</g>
	</g>
</g>
</svg>
